<?xml version="1.0" encoding="UTF-8"?>
<!DOCTYPE svg PUBLIC  "-//W3C//DTD SVG 1.1//EN" "http://www.w3.org/Graphics/SVG/1.1/DTD/svg11-flat-20030114.dtd">
<svg xmlns="http://www.w3.org/2000/svg" xmlns:xlink="http://www.w3.org/1999/xlink"
     id="Figure15.08ExtrudedHalfCylinderWithCapsWithAxes.Extrusion1.svg"
     width="900"
     height="750">
   <rect width="900" height="750" fill="cyan" stroke="black"/>
   <!--<x3d:Extrusion crossSection='
1.00 0.00 0.92 -0.38 0.71 -0.71 0.38 -0.92 0.00 -1.00 -0.38 -0.92 -0.71 -0.71 -0.92 -0.38 -1.00 -0.00'/>
-->
<!--
			Min xPos = -1.00
			Max xPos = 1.00			
			Min yPos = -1.00
			Max yPos = 0.92-->
<g transform="translate(450 375) scale(100 -100)">
      <g style="fill:none;stroke:blue;stroke-width:0.04">
         <line id="line1" x1="1.00" y1="0.00" x2="0.92" y2="-0.38"/>
         <line id="line2" x1="0.92" y1="-0.38" x2="0.71" y2="-0.71"/>
         <line id="line3" x1="0.71" y1="-0.71" x2="0.38" y2="-0.92"/>
         <line id="line4" x1="0.38" y1="-0.92" x2="0.00" y2="-1.00"/>
         <line id="line5" x1="0.00" y1="-1.00" x2="-0.38" y2="-0.92"/>
         <line id="line6" x1="-0.38" y1="-0.92" x2="-0.71" y2="-0.71"/>
         <line id="line7" x1="-0.71" y1="-0.71" x2="-0.92" y2="-0.38"/>
         <line id="line8" x1="-0.92" y1="-0.38" x2="-1.00" y2="-0.00"/>
      </g>
      <g style="fill:red;stroke:red;stroke-width:0.001">
         <circle id="marker1" cx="1.00" cy="0.00" r="0.05"/>
         <set xlink:href="#markerText1" attributeType="CSS"
              attributeName="visibility"
              to="visible"
              begin="marker1.mouseover"
              end="marker1.mouseout"/>
         <circle id="marker2" cx="0.92" cy="-0.38" r="0.05"/>
         <set xlink:href="#markerText2" attributeType="CSS"
              attributeName="visibility"
              to="visible"
              begin="marker2.mouseover"
              end="marker2.mouseout"/>
         <circle id="marker3" cx="0.71" cy="-0.71" r="0.05"/>
         <set xlink:href="#markerText3" attributeType="CSS"
              attributeName="visibility"
              to="visible"
              begin="marker3.mouseover"
              end="marker3.mouseout"/>
         <circle id="marker4" cx="0.38" cy="-0.92" r="0.05"/>
         <set xlink:href="#markerText4" attributeType="CSS"
              attributeName="visibility"
              to="visible"
              begin="marker4.mouseover"
              end="marker4.mouseout"/>
         <circle id="marker5" cx="0.00" cy="-1.00" r="0.05"/>
         <set xlink:href="#markerText5" attributeType="CSS"
              attributeName="visibility"
              to="visible"
              begin="marker5.mouseover"
              end="marker5.mouseout"/>
         <circle id="marker6" cx="-0.38" cy="-0.92" r="0.05"/>
         <set xlink:href="#markerText6" attributeType="CSS"
              attributeName="visibility"
              to="visible"
              begin="marker6.mouseover"
              end="marker6.mouseout"/>
         <circle id="marker7" cx="-0.71" cy="-0.71" r="0.05"/>
         <set xlink:href="#markerText7" attributeType="CSS"
              attributeName="visibility"
              to="visible"
              begin="marker7.mouseover"
              end="marker7.mouseout"/>
         <circle id="marker8" cx="-0.92" cy="-0.38" r="0.05"/>
         <set xlink:href="#markerText8" attributeType="CSS"
              attributeName="visibility"
              to="visible"
              begin="marker8.mouseover"
              end="marker8.mouseout"/>
         <circle id="marker9" cx="-1.00" cy="-0.00" r="0.05"/>
         <set xlink:href="#markerText9" attributeType="CSS"
              attributeName="visibility"
              to="visible"
              begin="marker9.mouseover"
              end="marker9.mouseout"/>
      </g>
   </g>
   <g id="markerTexts" transform="translate(450 375)"
      style="visibility:hidden;font-size:14;font-weight:bold; fill:green; stroke:none">
      <text id="markerText1" x="105" y="-5">(1.00,0.00)</text>
      <text id="markerText2" x="97" y="33">(0.92,-0.38)</text>
      <text id="markerText3" x="76" y="66">(0.71,-0.71)</text>
      <text id="markerText4" x="43" y="87">(0.38,-0.92)</text>
      <text id="markerText5" x="5" y="95">(0.00,-1.00)</text>
      <text id="markerText6" x="-33" y="87">(-0.38,-0.92)</text>
      <text id="markerText7" x="-66" y="66">(-0.71,-0.71)</text>
      <text id="markerText8" x="-87" y="33">(-0.92,-0.38)</text>
      <text id="markerText9" x="-95" y="-5">(-1.00,-0.00)</text>
   </g>
   <g transform="translate(450 375) scale(100 -100)"
      style="fill:none;stroke:rgb(0,0,0);stroke-width:0.03">
      <line x1="0" y1="-1.1" x2="0" y2="1.0120000000000002"/>
      <line x1="-1.1" y1="0" x2="1.1" y2="0"/>
      <g style="fill:none;stroke:rgb(0,0,0);stroke-width:0.03">
         <line x1="-1" y1="-0.03" x2="-1" y2="0.03"/>
         <line x1="-0.8" y1="-0.03" x2="-0.8" y2="0.03"/>
         <line x1="-0.6000000000000001" y1="-0.03" x2="-0.6000000000000001" y2="0.03"/>
         <line x1="-0.4000000000000001" y1="-0.03" x2="-0.4000000000000001" y2="0.03"/>
         <line x1="-0.20000000000000007" y1="-0.03" x2="-0.20000000000000007"
               y2="0.03"/>
         <line x1="-5.551115123125783E-17" y1="-0.03" x2="-5.551115123125783E-17"
               y2="0.03"/>
         <line x1="0.19999999999999996" y1="-0.03" x2="0.19999999999999996" y2="0.03"/>
         <line x1="0.39999999999999997" y1="-0.03" x2="0.39999999999999997" y2="0.03"/>
         <line x1="0.6" y1="-0.03" x2="0.6" y2="0.03"/>
         <line x1="0.8" y1="-0.03" x2="0.8" y2="0.03"/>
         <line x1="1" y1="-0.03" x2="1" y2="0.03"/>
         <line y1="-1" x1="-0.03" y2="-1" x2="0.03"/>
         <line y1="-0.8" x1="-0.03" y2="-0.8" x2="0.03"/>
         <line y1="-0.6000000000000001" x1="-0.03" y2="-0.6000000000000001" x2="0.03"/>
         <line y1="-0.4000000000000001" x1="-0.03" y2="-0.4000000000000001" x2="0.03"/>
         <line y1="-0.20000000000000007" x1="-0.03" y2="-0.20000000000000007"
               x2="0.03"/>
         <line y1="-5.551115123125783E-17" x1="-0.03" y2="-5.551115123125783E-17"
               x2="0.03"/>
         <line y1="0.19999999999999996" x1="-0.03" y2="0.19999999999999996" x2="0.03"/>
         <line y1="0.39999999999999997" x1="-0.03" y2="0.39999999999999997" x2="0.03"/>
         <line y1="0.6" x1="-0.03" y2="0.6" x2="0.03"/>
         <line y1="0.8" x1="-0.03" y2="0.8" x2="0.03"/>
         <line y1="1" x1="-0.03" y2="1" x2="0.03"/>
      </g>
   </g>
</svg>